<?xml version="1.0" encoding="iso-8859-1"?>
<!-- Generator: Adobe Illustrator 16.0.0, SVG Export Plug-In . SVG Version: 6.00 Build 0)  -->
<!DOCTYPE svg PUBLIC "-//W3C//DTD SVG 1.1//EN" "http://www.w3.org/Graphics/SVG/1.1/DTD/svg11.dtd">
<svg xmlns="http://www.w3.org/2000/svg" xmlns:xlink="http://www.w3.org/1999/xlink" version="1.1" id="Capa_1" x="0px" y="0px" width="512px" height="512px" viewBox="0 0 315.823 315.823" style="enable-background:new 0 0 315.823 315.823;" xml:space="preserve">
<g>
	<path d="M219.451,16.534c10.652-10.659,24.824-16.528,39.901-16.528c4.556,0,9.04,0.536,13.401,1.602l-26.515,26.511   c-1.081,1.079-1.647,2.564-1.564,4.085l1.707,32.129c0.141,2.74,2.347,4.935,5.087,5.079l32.126,1.711   c1.518,0.079,3.013-0.491,4.083-1.57l26.525-26.517c4.646,18.984-0.813,39.197-14.928,53.313   c-10.626,10.628-24.762,16.475-39.818,16.475c-6.456,0-12.813-1.087-18.866-3.22c-0.283-0.103-0.551-0.226-0.818-0.339l-1.05-0.441   c-7.401-2.897-13.88-7.088-19.266-12.48c-4.966-4.95-8.924-10.787-11.806-17.412c-0.153-0.339-0.278-0.683-0.405-1.021   l-0.314-0.811C198.691,56.157,203.604,32.382,219.451,16.534z" fill="#FFFFFF"/>
	<g>
		<path d="M79.902,208.066c-0.866-0.356-1.696-0.761-2.588-1.075c-0.161-0.062-0.305-0.163-0.462-0.231    c-6.423-2.493-13.311-3.838-20.411-3.838c-15.079,0-29.247,5.869-39.911,16.531C5.864,230.119,0,244.293,0,259.37    c0,15.076,5.877,29.25,16.536,39.91c10.659,10.663,24.827,16.537,39.911,16.537c15.079,0,29.248-5.874,39.912-16.537    c22.007-22.004,22.002-57.812-0.005-79.827C91.516,214.618,85.936,210.829,79.902,208.066z M89.135,270.907l-21.147,21.156    c-1.016,1.018-2.391,1.574-3.8,1.574c-0.462,0-0.93-0.062-1.392-0.183l-28.898-7.733c-1.855-0.498-3.301-1.947-3.8-3.802    l-7.741-28.901c-0.501-1.854,0.032-3.833,1.392-5.191l21.157-21.151c1.359-1.354,3.323-1.891,5.192-1.396l28.893,7.738    c1.855,0.493,3.307,1.947,3.8,3.802l7.735,28.896C91.027,267.569,90.495,269.548,89.135,270.907z" fill="#FFFFFF"/>
		<path d="M226.544,114.895c-2.163-1.194-4.241-2.506-6.236-3.921c-0.63-0.445-1.261-0.897-1.885-1.359    c-2.299-1.755-4.525-3.606-6.572-5.659c-2.052-2.047-3.911-4.263-5.664-6.559c-0.399-0.528-0.798-1.048-1.187-1.581    c-1.67-2.312-3.223-4.703-4.592-7.236c-0.049-0.078-0.102-0.144-0.143-0.225L88.55,200.072    c6.483,3.213,12.347,7.417,17.486,12.562c4.112,4.121,7.643,8.726,10.557,13.77l110.912-110.907    C227.164,115.318,226.874,115.077,226.544,114.895z" fill="#FFFFFF"/>
		<polygon points="50.308,236.461 33.544,253.227 39.681,276.126 62.586,282.263 79.342,265.5 73.208,242.598   " fill="#FFFFFF"/>
	</g>
</g>
<g>
</g>
<g>
</g>
<g>
</g>
<g>
</g>
<g>
</g>
<g>
</g>
<g>
</g>
<g>
</g>
<g>
</g>
<g>
</g>
<g>
</g>
<g>
</g>
<g>
</g>
<g>
</g>
<g>
</g>
</svg>
